<mxfile host="app.diagrams.net" modified="2020-09-23T12:33:41.159Z" agent="5.0 (Windows NT 6.1; Win64; x64) AppleWebKit/537.36 (KHTML, like Gecko) Chrome/85.0.4183.102 Safari/537.36" etag="Qo5nCqkk37YA3W01I5q7" version="13.7.4" type="github">
  <diagram id="KQrDQqh1n8K3jwENiAWo" name="Page-1">
    <mxGraphModel dx="1101" dy="769" grid="1" gridSize="10" guides="1" tooltips="1" connect="1" arrows="1" fold="1" page="1" pageScale="1" pageWidth="827" pageHeight="1169" math="0" shadow="0">
      <root>
        <mxCell id="0" />
        <mxCell id="1" parent="0" />
        <mxCell id="UcBiU5lWhdrB8DMdz7Xg-1" value="Git (LAR)" style="rounded=0;whiteSpace=wrap;html=1;" parent="1" vertex="1">
          <mxGeometry x="240" y="500" width="120" height="60" as="geometry" />
        </mxCell>
        <mxCell id="8uJsjg-TArk7znv_JZjP-6" value="Fetch" style="edgeStyle=orthogonalEdgeStyle;rounded=0;orthogonalLoop=1;jettySize=auto;html=1;exitX=0.25;exitY=1;exitDx=0;exitDy=0;entryX=0.5;entryY=1;entryDx=0;entryDy=0;startArrow=none;startFill=0;" edge="1" parent="1" source="8uJsjg-TArk7znv_JZjP-1" target="UcBiU5lWhdrB8DMdz7Xg-1">
          <mxGeometry relative="1" as="geometry">
            <mxPoint x="360" y="580" as="targetPoint" />
            <Array as="points">
              <mxPoint x="590" y="600" />
              <mxPoint x="300" y="600" />
            </Array>
          </mxGeometry>
        </mxCell>
        <mxCell id="8uJsjg-TArk7znv_JZjP-12" value="Build" style="edgeStyle=orthogonalEdgeStyle;rounded=0;orthogonalLoop=1;jettySize=auto;html=1;exitX=0.5;exitY=1;exitDx=0;exitDy=0;startArrow=none;startFill=0;endArrow=classicThin;endFill=1;" edge="1" parent="1" source="8uJsjg-TArk7znv_JZjP-1" target="8uJsjg-TArk7znv_JZjP-7">
          <mxGeometry relative="1" as="geometry" />
        </mxCell>
        <mxCell id="8uJsjg-TArk7znv_JZjP-14" value="Deploy" style="edgeStyle=orthogonalEdgeStyle;rounded=0;orthogonalLoop=1;jettySize=auto;html=1;exitX=0.75;exitY=1;exitDx=0;exitDy=0;entryX=0.5;entryY=0;entryDx=0;entryDy=0;startArrow=none;startFill=0;endArrow=classicThin;endFill=1;" edge="1" parent="1" source="8uJsjg-TArk7znv_JZjP-1" target="8uJsjg-TArk7znv_JZjP-13">
          <mxGeometry relative="1" as="geometry">
            <Array as="points">
              <mxPoint x="650" y="650" />
              <mxPoint x="670" y="650" />
            </Array>
          </mxGeometry>
        </mxCell>
        <mxCell id="8uJsjg-TArk7znv_JZjP-1" value="Team City" style="rounded=0;whiteSpace=wrap;html=1;" vertex="1" parent="1">
          <mxGeometry x="560" y="500" width="120" height="60" as="geometry" />
        </mxCell>
        <mxCell id="8uJsjg-TArk7znv_JZjP-2" value="Hook" style="endArrow=classic;html=1;exitX=1;exitY=0.5;exitDx=0;exitDy=0;" edge="1" parent="1" source="UcBiU5lWhdrB8DMdz7Xg-1" target="8uJsjg-TArk7znv_JZjP-1">
          <mxGeometry width="50" height="50" relative="1" as="geometry">
            <mxPoint x="510" y="740" as="sourcePoint" />
            <mxPoint x="560" y="690" as="targetPoint" />
          </mxGeometry>
        </mxCell>
        <mxCell id="8uJsjg-TArk7znv_JZjP-23" style="edgeStyle=none;rounded=0;orthogonalLoop=1;jettySize=auto;html=1;exitX=0;exitY=0.5;exitDx=0;exitDy=0;entryX=0;entryY=0.5;entryDx=0;entryDy=0;startArrow=none;startFill=0;endArrow=classicThin;endFill=1;" edge="1" parent="1" source="8uJsjg-TArk7znv_JZjP-3" target="8uJsjg-TArk7znv_JZjP-20">
          <mxGeometry relative="1" as="geometry" />
        </mxCell>
        <mxCell id="8uJsjg-TArk7znv_JZjP-3" value="" style="rounded=0;whiteSpace=wrap;html=1;" vertex="1" parent="1">
          <mxGeometry x="240" y="240" width="390" height="170" as="geometry" />
        </mxCell>
        <mxCell id="8uJsjg-TArk7znv_JZjP-19" value="Push to&lt;br&gt;develop" style="rounded=0;orthogonalLoop=1;jettySize=auto;html=1;entryX=0;entryY=0.5;entryDx=0;entryDy=0;startArrow=none;startFill=0;endArrow=classicThin;endFill=1;exitX=1;exitY=0.3333333333333333;exitDx=0;exitDy=0;exitPerimeter=0;" edge="1" parent="1" source="8uJsjg-TArk7znv_JZjP-4" target="8uJsjg-TArk7znv_JZjP-3">
          <mxGeometry relative="1" as="geometry" />
        </mxCell>
        <mxCell id="8uJsjg-TArk7znv_JZjP-4" value="Developer" style="shape=umlActor;verticalLabelPosition=bottom;verticalAlign=top;html=1;outlineConnect=0;" vertex="1" parent="1">
          <mxGeometry x="80" y="620" width="30" height="60" as="geometry" />
        </mxCell>
        <mxCell id="8uJsjg-TArk7znv_JZjP-5" value="Push to&amp;nbsp;&lt;br&gt;master12" style="endArrow=classic;html=1;entryX=0;entryY=0.5;entryDx=0;entryDy=0;" edge="1" parent="1" source="8uJsjg-TArk7znv_JZjP-4" target="UcBiU5lWhdrB8DMdz7Xg-1">
          <mxGeometry width="50" height="50" relative="1" as="geometry">
            <mxPoint x="110" y="620" as="sourcePoint" />
            <mxPoint x="160" y="570" as="targetPoint" />
          </mxGeometry>
        </mxCell>
        <mxCell id="8uJsjg-TArk7znv_JZjP-15" style="edgeStyle=orthogonalEdgeStyle;rounded=0;orthogonalLoop=1;jettySize=auto;html=1;exitX=0.5;exitY=1;exitDx=0;exitDy=0;exitPerimeter=0;startArrow=none;startFill=0;endArrow=classicThin;endFill=1;" edge="1" parent="1" source="8uJsjg-TArk7znv_JZjP-7">
          <mxGeometry relative="1" as="geometry">
            <mxPoint x="670" y="860" as="targetPoint" />
            <Array as="points">
              <mxPoint x="560" y="860" />
              <mxPoint x="660" y="860" />
            </Array>
          </mxGeometry>
        </mxCell>
        <mxCell id="8uJsjg-TArk7znv_JZjP-7" value="Artefact" style="shape=cylinder3;whiteSpace=wrap;html=1;boundedLbl=1;backgroundOutline=1;size=15;" vertex="1" parent="1">
          <mxGeometry x="530" y="730" width="60" height="80" as="geometry" />
        </mxCell>
        <mxCell id="8uJsjg-TArk7znv_JZjP-9" value="&lt;b&gt;1&lt;/b&gt;" style="ellipse;whiteSpace=wrap;html=1;aspect=fixed;fillColor=#ffe6cc;strokeColor=#d79b00;" vertex="1" parent="1">
          <mxGeometry x="180" y="600" width="40" height="40" as="geometry" />
        </mxCell>
        <mxCell id="8uJsjg-TArk7znv_JZjP-10" value="&lt;b&gt;2&lt;/b&gt;" style="ellipse;whiteSpace=wrap;html=1;aspect=fixed;fillColor=#ffe6cc;strokeColor=#d79b00;" vertex="1" parent="1">
          <mxGeometry x="440" y="470" width="40" height="40" as="geometry" />
        </mxCell>
        <mxCell id="8uJsjg-TArk7znv_JZjP-11" value="&lt;b&gt;3&lt;/b&gt;" style="ellipse;whiteSpace=wrap;html=1;aspect=fixed;fillColor=#ffe6cc;strokeColor=#d79b00;" vertex="1" parent="1">
          <mxGeometry x="420" y="550" width="40" height="40" as="geometry" />
        </mxCell>
        <mxCell id="8uJsjg-TArk7znv_JZjP-18" value="ClickOnce" style="edgeStyle=orthogonalEdgeStyle;rounded=0;orthogonalLoop=1;jettySize=auto;html=1;exitX=0;exitY=0.5;exitDx=0;exitDy=0;entryX=1;entryY=0.3333333333333333;entryDx=0;entryDy=0;entryPerimeter=0;startArrow=none;startFill=0;endArrow=classicThin;endFill=1;" edge="1" parent="1" source="8uJsjg-TArk7znv_JZjP-13" target="8uJsjg-TArk7znv_JZjP-17">
          <mxGeometry relative="1" as="geometry" />
        </mxCell>
        <mxCell id="8uJsjg-TArk7znv_JZjP-13" value="Microsoft IIS" style="rounded=0;whiteSpace=wrap;html=1;" vertex="1" parent="1">
          <mxGeometry x="610" y="890" width="120" height="60" as="geometry" />
        </mxCell>
        <mxCell id="8uJsjg-TArk7znv_JZjP-16" value="&lt;b&gt;4&lt;/b&gt;" style="ellipse;whiteSpace=wrap;html=1;aspect=fixed;fillColor=#ffe6cc;strokeColor=#d79b00;" vertex="1" parent="1">
          <mxGeometry x="600" y="680" width="40" height="40" as="geometry" />
        </mxCell>
        <mxCell id="8uJsjg-TArk7znv_JZjP-17" value="User" style="shape=umlActor;verticalLabelPosition=bottom;verticalAlign=top;html=1;outlineConnect=0;" vertex="1" parent="1">
          <mxGeometry x="80" y="900" width="30" height="60" as="geometry" />
        </mxCell>
        <mxCell id="8uJsjg-TArk7znv_JZjP-28" style="edgeStyle=none;rounded=0;orthogonalLoop=1;jettySize=auto;html=1;exitX=1;exitY=0.5;exitDx=0;exitDy=0;entryX=0;entryY=0.5;entryDx=0;entryDy=0;startArrow=none;startFill=0;endArrow=classicThin;endFill=1;" edge="1" parent="1" source="8uJsjg-TArk7znv_JZjP-20" target="8uJsjg-TArk7znv_JZjP-21">
          <mxGeometry relative="1" as="geometry" />
        </mxCell>
        <mxCell id="8uJsjg-TArk7znv_JZjP-29" style="edgeStyle=none;rounded=0;orthogonalLoop=1;jettySize=auto;html=1;exitX=0.5;exitY=0;exitDx=0;exitDy=0;entryX=0.583;entryY=1.033;entryDx=0;entryDy=0;entryPerimeter=0;startArrow=none;startFill=0;endArrow=classicThin;endFill=1;" edge="1" parent="1" source="8uJsjg-TArk7znv_JZjP-20" target="8uJsjg-TArk7znv_JZjP-25">
          <mxGeometry relative="1" as="geometry" />
        </mxCell>
        <mxCell id="8uJsjg-TArk7znv_JZjP-30" style="edgeStyle=none;rounded=0;orthogonalLoop=1;jettySize=auto;html=1;exitX=0.5;exitY=0;exitDx=0;exitDy=0;entryX=0.5;entryY=1;entryDx=0;entryDy=0;startArrow=none;startFill=0;endArrow=classicThin;endFill=1;" edge="1" parent="1" source="8uJsjg-TArk7znv_JZjP-20" target="8uJsjg-TArk7znv_JZjP-26">
          <mxGeometry relative="1" as="geometry" />
        </mxCell>
        <mxCell id="8uJsjg-TArk7znv_JZjP-20" value="Git" style="rounded=0;whiteSpace=wrap;html=1;" vertex="1" parent="1">
          <mxGeometry x="280" y="295" width="120" height="60" as="geometry" />
        </mxCell>
        <mxCell id="8uJsjg-TArk7znv_JZjP-21" value="Tasks" style="rounded=0;whiteSpace=wrap;html=1;" vertex="1" parent="1">
          <mxGeometry x="470" y="295" width="120" height="60" as="geometry" />
        </mxCell>
        <mxCell id="8uJsjg-TArk7znv_JZjP-22" value="GitLab" style="text;html=1;strokeColor=none;fillColor=none;align=center;verticalAlign=middle;whiteSpace=wrap;rounded=0;" vertex="1" parent="1">
          <mxGeometry x="440" y="260" width="40" height="20" as="geometry" />
        </mxCell>
        <mxCell id="8uJsjg-TArk7znv_JZjP-24" value="" style="endArrow=classic;html=1;exitX=0;exitY=0.5;exitDx=0;exitDy=0;entryX=0;entryY=0.5;entryDx=0;entryDy=0;" edge="1" parent="1" source="8uJsjg-TArk7znv_JZjP-3" target="8uJsjg-TArk7znv_JZjP-20">
          <mxGeometry width="50" height="50" relative="1" as="geometry">
            <mxPoint x="410" y="560" as="sourcePoint" />
            <mxPoint x="460" y="510" as="targetPoint" />
          </mxGeometry>
        </mxCell>
        <mxCell id="8uJsjg-TArk7znv_JZjP-32" style="edgeStyle=orthogonalEdgeStyle;rounded=0;orthogonalLoop=1;jettySize=auto;html=1;exitX=0;exitY=0.5;exitDx=0;exitDy=0;startArrow=none;startFill=0;endArrow=classicThin;endFill=1;entryX=0;entryY=0.3333333333333333;entryDx=0;entryDy=0;entryPerimeter=0;" edge="1" parent="1" source="8uJsjg-TArk7znv_JZjP-25" target="8uJsjg-TArk7znv_JZjP-4">
          <mxGeometry relative="1" as="geometry">
            <mxPoint x="50" y="140" as="targetPoint" />
          </mxGeometry>
        </mxCell>
        <mxCell id="8uJsjg-TArk7znv_JZjP-25" value="EMail" style="rounded=0;whiteSpace=wrap;html=1;" vertex="1" parent="1">
          <mxGeometry x="480" y="90" width="120" height="60" as="geometry" />
        </mxCell>
        <mxCell id="8uJsjg-TArk7znv_JZjP-34" style="edgeStyle=orthogonalEdgeStyle;rounded=0;orthogonalLoop=1;jettySize=auto;html=1;exitX=0;exitY=0.5;exitDx=0;exitDy=0;startArrow=none;startFill=0;endArrow=classicThin;endFill=1;" edge="1" parent="1" source="8uJsjg-TArk7znv_JZjP-26">
          <mxGeometry relative="1" as="geometry">
            <mxPoint x="80" y="640" as="targetPoint" />
            <Array as="points">
              <mxPoint x="80" y="180" />
              <mxPoint x="80" y="640" />
            </Array>
          </mxGeometry>
        </mxCell>
        <mxCell id="8uJsjg-TArk7znv_JZjP-26" value="Slack" style="rounded=0;whiteSpace=wrap;html=1;" vertex="1" parent="1">
          <mxGeometry x="280" y="150" width="120" height="60" as="geometry" />
        </mxCell>
        <mxCell id="8uJsjg-TArk7znv_JZjP-31" value="Error" style="endArrow=classic;html=1;exitX=1;exitY=0.25;exitDx=0;exitDy=0;edgeStyle=orthogonalEdgeStyle;entryX=1;entryY=0.5;entryDx=0;entryDy=0;" edge="1" parent="1" source="8uJsjg-TArk7znv_JZjP-1" target="8uJsjg-TArk7znv_JZjP-25">
          <mxGeometry width="50" height="50" relative="1" as="geometry">
            <mxPoint x="390" y="490" as="sourcePoint" />
            <mxPoint x="300" y="80" as="targetPoint" />
            <Array as="points">
              <mxPoint x="740" y="515" />
              <mxPoint x="740" y="120" />
            </Array>
          </mxGeometry>
        </mxCell>
      </root>
    </mxGraphModel>
  </diagram>
</mxfile>
